<mxfile host="app.diagrams.net" agent="Mozilla/5.0 (X11; Linux x86_64) AppleWebKit/537.36 (KHTML, like Gecko) Chrome/131.0.0.0 Safari/537.36" version="24.9.2">
  <diagram name="Page-1" id="QgTcXcBCcNnLsBCdf2l8">
    <mxGraphModel dx="1384" dy="754" grid="1" gridSize="10" guides="1" tooltips="1" connect="1" arrows="1" fold="1" page="1" pageScale="1" pageWidth="850" pageHeight="1100" math="0" shadow="0">
      <root>
        <mxCell id="0" />
        <mxCell id="1" parent="0" />
        <mxCell id="s4NM-1Em4Yht4aQSiXmM-1" value="sales_offices" style="whiteSpace=wrap;html=1;align=center;" vertex="1" parent="1">
          <mxGeometry x="260" y="170" width="100" height="40" as="geometry" />
        </mxCell>
        <mxCell id="s4NM-1Em4Yht4aQSiXmM-2" value="employees" style="whiteSpace=wrap;html=1;align=center;" vertex="1" parent="1">
          <mxGeometry x="890" y="160" width="100" height="40" as="geometry" />
        </mxCell>
        <mxCell id="s4NM-1Em4Yht4aQSiXmM-3" value="properties" style="whiteSpace=wrap;html=1;align=center;" vertex="1" parent="1">
          <mxGeometry x="260" y="530" width="100" height="40" as="geometry" />
        </mxCell>
        <mxCell id="s4NM-1Em4Yht4aQSiXmM-4" value="owners" style="whiteSpace=wrap;html=1;align=center;" vertex="1" parent="1">
          <mxGeometry x="910" y="520" width="100" height="40" as="geometry" />
        </mxCell>
        <mxCell id="s4NM-1Em4Yht4aQSiXmM-5" value="number" style="ellipse;whiteSpace=wrap;html=1;align=center;fontStyle=4;" vertex="1" parent="1">
          <mxGeometry x="120" y="70" width="100" height="40" as="geometry" />
        </mxCell>
        <mxCell id="s4NM-1Em4Yht4aQSiXmM-6" value="locations" style="ellipse;whiteSpace=wrap;html=1;align=center;" vertex="1" parent="1">
          <mxGeometry x="340" y="60" width="100" height="40" as="geometry" />
        </mxCell>
        <mxCell id="s4NM-1Em4Yht4aQSiXmM-10" value="" style="endArrow=none;html=1;rounded=0;exitX=1;exitY=1;exitDx=0;exitDy=0;entryX=0.5;entryY=0;entryDx=0;entryDy=0;" edge="1" parent="1" source="s4NM-1Em4Yht4aQSiXmM-5" target="s4NM-1Em4Yht4aQSiXmM-1">
          <mxGeometry relative="1" as="geometry">
            <mxPoint x="340" y="320" as="sourcePoint" />
            <mxPoint x="500" y="320" as="targetPoint" />
          </mxGeometry>
        </mxCell>
        <mxCell id="s4NM-1Em4Yht4aQSiXmM-11" value="" style="endArrow=none;html=1;rounded=0;exitX=0.5;exitY=1;exitDx=0;exitDy=0;entryX=0.75;entryY=0;entryDx=0;entryDy=0;" edge="1" parent="1" source="s4NM-1Em4Yht4aQSiXmM-6" target="s4NM-1Em4Yht4aQSiXmM-1">
          <mxGeometry relative="1" as="geometry">
            <mxPoint x="215" y="114" as="sourcePoint" />
            <mxPoint x="320" y="180" as="targetPoint" />
          </mxGeometry>
        </mxCell>
        <mxCell id="s4NM-1Em4Yht4aQSiXmM-12" value="id" style="ellipse;whiteSpace=wrap;html=1;align=center;fontStyle=4;" vertex="1" parent="1">
          <mxGeometry x="830" y="50" width="100" height="40" as="geometry" />
        </mxCell>
        <mxCell id="s4NM-1Em4Yht4aQSiXmM-13" value="name" style="ellipse;whiteSpace=wrap;html=1;align=center;" vertex="1" parent="1">
          <mxGeometry x="1010" y="60" width="100" height="40" as="geometry" />
        </mxCell>
        <mxCell id="s4NM-1Em4Yht4aQSiXmM-14" value="" style="endArrow=none;html=1;rounded=0;exitX=0.5;exitY=1;exitDx=0;exitDy=0;entryX=0.25;entryY=0;entryDx=0;entryDy=0;" edge="1" parent="1" source="s4NM-1Em4Yht4aQSiXmM-12" target="s4NM-1Em4Yht4aQSiXmM-2">
          <mxGeometry relative="1" as="geometry">
            <mxPoint x="400" y="110" as="sourcePoint" />
            <mxPoint x="345" y="180" as="targetPoint" />
          </mxGeometry>
        </mxCell>
        <mxCell id="s4NM-1Em4Yht4aQSiXmM-15" value="" style="endArrow=none;html=1;rounded=0;exitX=0.5;exitY=1;exitDx=0;exitDy=0;entryX=0.75;entryY=0;entryDx=0;entryDy=0;" edge="1" parent="1" source="s4NM-1Em4Yht4aQSiXmM-13" target="s4NM-1Em4Yht4aQSiXmM-2">
          <mxGeometry relative="1" as="geometry">
            <mxPoint x="890" y="100" as="sourcePoint" />
            <mxPoint x="925" y="170" as="targetPoint" />
          </mxGeometry>
        </mxCell>
        <mxCell id="s4NM-1Em4Yht4aQSiXmM-16" value="id" style="ellipse;whiteSpace=wrap;html=1;align=center;fontStyle=4;" vertex="1" parent="1">
          <mxGeometry x="90" y="540" width="100" height="40" as="geometry" />
        </mxCell>
        <mxCell id="s4NM-1Em4Yht4aQSiXmM-18" value="location" style="ellipse;whiteSpace=wrap;html=1;align=center;" vertex="1" parent="1">
          <mxGeometry x="220" y="620" width="100" height="40" as="geometry" />
        </mxCell>
        <mxCell id="s4NM-1Em4Yht4aQSiXmM-19" value="location" style="ellipse;whiteSpace=wrap;html=1;align=center;" vertex="1" parent="1">
          <mxGeometry x="300" y="730" width="100" height="40" as="geometry" />
        </mxCell>
        <mxCell id="s4NM-1Em4Yht4aQSiXmM-20" value="location" style="ellipse;whiteSpace=wrap;html=1;align=center;" vertex="1" parent="1">
          <mxGeometry x="160" y="730" width="100" height="40" as="geometry" />
        </mxCell>
        <mxCell id="s4NM-1Em4Yht4aQSiXmM-21" value="location" style="ellipse;whiteSpace=wrap;html=1;align=center;" vertex="1" parent="1">
          <mxGeometry x="410" y="660" width="100" height="40" as="geometry" />
        </mxCell>
        <mxCell id="s4NM-1Em4Yht4aQSiXmM-22" value="location" style="ellipse;whiteSpace=wrap;html=1;align=center;" vertex="1" parent="1">
          <mxGeometry x="50" y="660" width="100" height="40" as="geometry" />
        </mxCell>
        <mxCell id="s4NM-1Em4Yht4aQSiXmM-24" value="" style="endArrow=none;html=1;rounded=0;exitX=0;exitY=0.5;exitDx=0;exitDy=0;entryX=1;entryY=0.5;entryDx=0;entryDy=0;" edge="1" parent="1" source="s4NM-1Em4Yht4aQSiXmM-3" target="s4NM-1Em4Yht4aQSiXmM-16">
          <mxGeometry relative="1" as="geometry">
            <mxPoint x="215" y="114" as="sourcePoint" />
            <mxPoint x="320" y="180" as="targetPoint" />
          </mxGeometry>
        </mxCell>
        <mxCell id="s4NM-1Em4Yht4aQSiXmM-25" value="" style="endArrow=none;html=1;rounded=0;exitX=0.5;exitY=1;exitDx=0;exitDy=0;entryX=0.5;entryY=0;entryDx=0;entryDy=0;" edge="1" parent="1" source="s4NM-1Em4Yht4aQSiXmM-3" target="s4NM-1Em4Yht4aQSiXmM-18">
          <mxGeometry relative="1" as="geometry">
            <mxPoint x="270" y="560" as="sourcePoint" />
            <mxPoint x="200" y="570" as="targetPoint" />
          </mxGeometry>
        </mxCell>
        <mxCell id="s4NM-1Em4Yht4aQSiXmM-26" value="" style="endArrow=none;html=1;rounded=0;exitX=1;exitY=0;exitDx=0;exitDy=0;entryX=0;entryY=0.5;entryDx=0;entryDy=0;" edge="1" parent="1" source="s4NM-1Em4Yht4aQSiXmM-22" target="s4NM-1Em4Yht4aQSiXmM-18">
          <mxGeometry relative="1" as="geometry">
            <mxPoint x="320" y="580" as="sourcePoint" />
            <mxPoint x="280" y="630" as="targetPoint" />
          </mxGeometry>
        </mxCell>
        <mxCell id="s4NM-1Em4Yht4aQSiXmM-27" value="" style="endArrow=none;html=1;rounded=0;exitX=0.5;exitY=0;exitDx=0;exitDy=0;entryX=0.28;entryY=0.925;entryDx=0;entryDy=0;entryPerimeter=0;" edge="1" parent="1" source="s4NM-1Em4Yht4aQSiXmM-20" target="s4NM-1Em4Yht4aQSiXmM-18">
          <mxGeometry relative="1" as="geometry">
            <mxPoint x="145" y="676" as="sourcePoint" />
            <mxPoint x="230" y="650" as="targetPoint" />
          </mxGeometry>
        </mxCell>
        <mxCell id="s4NM-1Em4Yht4aQSiXmM-28" value="" style="endArrow=none;html=1;rounded=0;exitX=0.5;exitY=0;exitDx=0;exitDy=0;entryX=1;entryY=1;entryDx=0;entryDy=0;" edge="1" parent="1" source="s4NM-1Em4Yht4aQSiXmM-19" target="s4NM-1Em4Yht4aQSiXmM-18">
          <mxGeometry relative="1" as="geometry">
            <mxPoint x="220" y="740" as="sourcePoint" />
            <mxPoint x="245" y="664" as="targetPoint" />
          </mxGeometry>
        </mxCell>
        <mxCell id="s4NM-1Em4Yht4aQSiXmM-29" value="" style="endArrow=none;html=1;rounded=0;exitX=0;exitY=0;exitDx=0;exitDy=0;entryX=1;entryY=0.5;entryDx=0;entryDy=0;" edge="1" parent="1" source="s4NM-1Em4Yht4aQSiXmM-21" target="s4NM-1Em4Yht4aQSiXmM-18">
          <mxGeometry relative="1" as="geometry">
            <mxPoint x="360" y="740" as="sourcePoint" />
            <mxPoint x="315" y="664" as="targetPoint" />
          </mxGeometry>
        </mxCell>
        <mxCell id="s4NM-1Em4Yht4aQSiXmM-31" value="id" style="ellipse;whiteSpace=wrap;html=1;align=center;fontStyle=4;" vertex="1" parent="1">
          <mxGeometry x="920" y="640" width="100" height="40" as="geometry" />
        </mxCell>
        <mxCell id="s4NM-1Em4Yht4aQSiXmM-32" value="name" style="ellipse;whiteSpace=wrap;html=1;align=center;" vertex="1" parent="1">
          <mxGeometry x="1100" y="560" width="100" height="40" as="geometry" />
        </mxCell>
        <mxCell id="s4NM-1Em4Yht4aQSiXmM-33" value="" style="endArrow=none;html=1;rounded=0;exitX=0.5;exitY=0;exitDx=0;exitDy=0;entryX=0.5;entryY=1;entryDx=0;entryDy=0;" edge="1" parent="1" source="s4NM-1Em4Yht4aQSiXmM-31" target="s4NM-1Em4Yht4aQSiXmM-4">
          <mxGeometry relative="1" as="geometry">
            <mxPoint x="435" y="676" as="sourcePoint" />
            <mxPoint x="330" y="650" as="targetPoint" />
          </mxGeometry>
        </mxCell>
        <mxCell id="s4NM-1Em4Yht4aQSiXmM-34" value="" style="endArrow=none;html=1;rounded=0;exitX=0;exitY=0;exitDx=0;exitDy=0;entryX=1;entryY=0.5;entryDx=0;entryDy=0;" edge="1" parent="1" source="s4NM-1Em4Yht4aQSiXmM-32" target="s4NM-1Em4Yht4aQSiXmM-4">
          <mxGeometry relative="1" as="geometry">
            <mxPoint x="980" y="650" as="sourcePoint" />
            <mxPoint x="970" y="570" as="targetPoint" />
          </mxGeometry>
        </mxCell>
        <mxCell id="s4NM-1Em4Yht4aQSiXmM-35" value="assigned to" style="shape=rhombus;perimeter=rhombusPerimeter;whiteSpace=wrap;html=1;align=center;" vertex="1" parent="1">
          <mxGeometry x="570" y="110" width="120" height="60" as="geometry" />
        </mxCell>
        <mxCell id="s4NM-1Em4Yht4aQSiXmM-36" value="" style="endArrow=none;html=1;rounded=0;exitX=0.85;exitY=0.267;exitDx=0;exitDy=0;entryX=0;entryY=0.5;entryDx=0;entryDy=0;exitPerimeter=0;" edge="1" parent="1" source="s4NM-1Em4Yht4aQSiXmM-38" target="s4NM-1Em4Yht4aQSiXmM-35">
          <mxGeometry relative="1" as="geometry">
            <mxPoint x="570" y="240" as="sourcePoint" />
            <mxPoint x="730" y="240" as="targetPoint" />
          </mxGeometry>
        </mxCell>
        <mxCell id="s4NM-1Em4Yht4aQSiXmM-37" value="" style="endArrow=none;html=1;rounded=0;exitX=0;exitY=0.5;exitDx=0;exitDy=0;entryX=1;entryY=0.5;entryDx=0;entryDy=0;" edge="1" parent="1" source="s4NM-1Em4Yht4aQSiXmM-40" target="s4NM-1Em4Yht4aQSiXmM-35">
          <mxGeometry relative="1" as="geometry">
            <mxPoint x="370" y="200" as="sourcePoint" />
            <mxPoint x="580" y="190" as="targetPoint" />
          </mxGeometry>
        </mxCell>
        <mxCell id="s4NM-1Em4Yht4aQSiXmM-39" value="" style="endArrow=none;html=1;rounded=0;exitX=1;exitY=0.5;exitDx=0;exitDy=0;entryX=0;entryY=0.5;entryDx=0;entryDy=0;" edge="1" parent="1" source="s4NM-1Em4Yht4aQSiXmM-1" target="s4NM-1Em4Yht4aQSiXmM-38">
          <mxGeometry relative="1" as="geometry">
            <mxPoint x="360" y="190" as="sourcePoint" />
            <mxPoint x="570" y="180" as="targetPoint" />
          </mxGeometry>
        </mxCell>
        <mxCell id="s4NM-1Em4Yht4aQSiXmM-38" value="1" style="text;strokeColor=none;fillColor=none;spacingLeft=4;spacingRight=4;overflow=hidden;rotatable=0;points=[[0,0.5],[1,0.5]];portConstraint=eastwest;fontSize=12;whiteSpace=wrap;html=1;" vertex="1" parent="1">
          <mxGeometry x="380" y="165" width="20" height="30" as="geometry" />
        </mxCell>
        <mxCell id="s4NM-1Em4Yht4aQSiXmM-41" value="" style="endArrow=none;html=1;rounded=0;exitX=0;exitY=0.5;exitDx=0;exitDy=0;entryX=1;entryY=0.5;entryDx=0;entryDy=0;" edge="1" parent="1" source="s4NM-1Em4Yht4aQSiXmM-2" target="s4NM-1Em4Yht4aQSiXmM-40">
          <mxGeometry relative="1" as="geometry">
            <mxPoint x="890" y="180" as="sourcePoint" />
            <mxPoint x="690" y="180" as="targetPoint" />
          </mxGeometry>
        </mxCell>
        <mxCell id="s4NM-1Em4Yht4aQSiXmM-40" value="M" style="text;strokeColor=none;fillColor=none;spacingLeft=4;spacingRight=4;overflow=hidden;rotatable=0;points=[[0,0.5],[1,0.5]];portConstraint=eastwest;fontSize=12;whiteSpace=wrap;html=1;" vertex="1" parent="1">
          <mxGeometry x="840" y="160" width="20" height="20" as="geometry" />
        </mxCell>
        <mxCell id="s4NM-1Em4Yht4aQSiXmM-42" value="" style="endArrow=none;html=1;rounded=0;exitX=0;exitY=1;exitDx=0;exitDy=0;entryX=0.925;entryY=0.65;entryDx=0;entryDy=0;entryPerimeter=0;exitPerimeter=0;" edge="1" parent="1" source="s4NM-1Em4Yht4aQSiXmM-40" target="s4NM-1Em4Yht4aQSiXmM-35">
          <mxGeometry relative="1" as="geometry">
            <mxPoint x="830" y="178.34000000000003" as="sourcePoint" />
            <mxPoint x="681" y="186" as="targetPoint" />
          </mxGeometry>
        </mxCell>
        <mxCell id="s4NM-1Em4Yht4aQSiXmM-43" value="" style="endArrow=none;html=1;rounded=0;exitX=0;exitY=0.5;exitDx=0;exitDy=0;entryX=1.15;entryY=0.933;entryDx=0;entryDy=0;entryPerimeter=0;" edge="1" parent="1" target="s4NM-1Em4Yht4aQSiXmM-40">
          <mxGeometry relative="1" as="geometry">
            <mxPoint x="889" y="185" as="sourcePoint" />
            <mxPoint x="869" y="185" as="targetPoint" />
          </mxGeometry>
        </mxCell>
        <mxCell id="s4NM-1Em4Yht4aQSiXmM-44" value="manage" style="shape=rhombus;perimeter=rhombusPerimeter;whiteSpace=wrap;html=1;align=center;" vertex="1" parent="1">
          <mxGeometry x="570" y="280" width="120" height="60" as="geometry" />
        </mxCell>
        <mxCell id="s4NM-1Em4Yht4aQSiXmM-46" value="" style="endArrow=none;html=1;rounded=0;exitX=1;exitY=1;exitDx=0;exitDy=0;entryX=0;entryY=0.5;entryDx=0;entryDy=0;" edge="1" parent="1" source="s4NM-1Em4Yht4aQSiXmM-45" target="s4NM-1Em4Yht4aQSiXmM-44">
          <mxGeometry relative="1" as="geometry">
            <mxPoint x="380" y="340" as="sourcePoint" />
            <mxPoint x="553" y="307" as="targetPoint" />
          </mxGeometry>
        </mxCell>
        <mxCell id="s4NM-1Em4Yht4aQSiXmM-47" value="" style="endArrow=none;html=1;rounded=0;exitX=1;exitY=1;exitDx=0;exitDy=0;entryX=0;entryY=0.5;entryDx=0;entryDy=0;" edge="1" parent="1" source="s4NM-1Em4Yht4aQSiXmM-1" target="s4NM-1Em4Yht4aQSiXmM-45">
          <mxGeometry relative="1" as="geometry">
            <mxPoint x="360" y="210" as="sourcePoint" />
            <mxPoint x="570" y="310" as="targetPoint" />
          </mxGeometry>
        </mxCell>
        <mxCell id="s4NM-1Em4Yht4aQSiXmM-45" value="1" style="text;strokeColor=none;fillColor=none;spacingLeft=4;spacingRight=4;overflow=hidden;rotatable=0;points=[[0,0.5],[1,0.5]];portConstraint=eastwest;fontSize=12;whiteSpace=wrap;html=1;" vertex="1" parent="1">
          <mxGeometry x="400" y="210" width="20" height="30" as="geometry" />
        </mxCell>
        <mxCell id="s4NM-1Em4Yht4aQSiXmM-48" value="" style="endArrow=none;html=1;rounded=0;exitX=1;exitY=0.5;exitDx=0;exitDy=0;entryX=0.5;entryY=1;entryDx=0;entryDy=0;" edge="1" parent="1" source="s4NM-1Em4Yht4aQSiXmM-52" target="s4NM-1Em4Yht4aQSiXmM-2">
          <mxGeometry relative="1" as="geometry">
            <mxPoint x="430" y="250" as="sourcePoint" />
            <mxPoint x="580" y="320" as="targetPoint" />
          </mxGeometry>
        </mxCell>
        <mxCell id="s4NM-1Em4Yht4aQSiXmM-49" value="" style="endArrow=none;html=1;rounded=0;exitX=1.05;exitY=0.767;exitDx=0;exitDy=0;entryX=0.15;entryY=0.4;entryDx=0;entryDy=0;entryPerimeter=0;exitPerimeter=0;" edge="1" parent="1" source="s4NM-1Em4Yht4aQSiXmM-45" target="s4NM-1Em4Yht4aQSiXmM-44">
          <mxGeometry relative="1" as="geometry">
            <mxPoint x="330" y="440" as="sourcePoint" />
            <mxPoint x="580" y="330" as="targetPoint" />
          </mxGeometry>
        </mxCell>
        <mxCell id="s4NM-1Em4Yht4aQSiXmM-51" value="" style="endArrow=none;html=1;rounded=0;exitX=0.92;exitY=1.05;exitDx=0;exitDy=0;entryX=0.25;entryY=0.933;entryDx=0;entryDy=0;exitPerimeter=0;entryPerimeter=0;" edge="1" parent="1" source="s4NM-1Em4Yht4aQSiXmM-1" target="s4NM-1Em4Yht4aQSiXmM-45">
          <mxGeometry relative="1" as="geometry">
            <mxPoint x="370" y="220" as="sourcePoint" />
            <mxPoint x="410" y="235" as="targetPoint" />
          </mxGeometry>
        </mxCell>
        <mxCell id="s4NM-1Em4Yht4aQSiXmM-53" value="" style="endArrow=none;html=1;rounded=0;exitX=1;exitY=0.5;exitDx=0;exitDy=0;entryX=0.5;entryY=1;entryDx=0;entryDy=0;" edge="1" parent="1" source="s4NM-1Em4Yht4aQSiXmM-44" target="s4NM-1Em4Yht4aQSiXmM-52">
          <mxGeometry relative="1" as="geometry">
            <mxPoint x="690" y="310" as="sourcePoint" />
            <mxPoint x="940" y="200" as="targetPoint" />
          </mxGeometry>
        </mxCell>
        <mxCell id="s4NM-1Em4Yht4aQSiXmM-52" value="1" style="text;strokeColor=none;fillColor=none;spacingLeft=4;spacingRight=4;overflow=hidden;rotatable=0;points=[[0,0.5],[1,0.5]];portConstraint=eastwest;fontSize=12;whiteSpace=wrap;html=1;" vertex="1" parent="1">
          <mxGeometry x="870" y="210" width="20" height="30" as="geometry" />
        </mxCell>
        <mxCell id="s4NM-1Em4Yht4aQSiXmM-54" value="listed with" style="shape=rhombus;perimeter=rhombusPerimeter;whiteSpace=wrap;html=1;align=center;" vertex="1" parent="1">
          <mxGeometry x="240" y="350" width="120" height="60" as="geometry" />
        </mxCell>
        <mxCell id="s4NM-1Em4Yht4aQSiXmM-55" value="" style="endArrow=none;html=1;rounded=0;exitX=0.65;exitY=1.2;exitDx=0;exitDy=0;entryX=0.5;entryY=0;entryDx=0;entryDy=0;exitPerimeter=0;" edge="1" parent="1" source="s4NM-1Em4Yht4aQSiXmM-62" target="s4NM-1Em4Yht4aQSiXmM-54">
          <mxGeometry relative="1" as="geometry">
            <mxPoint x="280" y="280" as="sourcePoint" />
            <mxPoint x="430" y="350" as="targetPoint" />
          </mxGeometry>
        </mxCell>
        <mxCell id="s4NM-1Em4Yht4aQSiXmM-56" value="" style="endArrow=none;html=1;rounded=0;exitX=0.5;exitY=0;exitDx=0;exitDy=0;" edge="1" parent="1" source="s4NM-1Em4Yht4aQSiXmM-59">
          <mxGeometry relative="1" as="geometry">
            <mxPoint x="314" y="219" as="sourcePoint" />
            <mxPoint x="300" y="410" as="targetPoint" />
          </mxGeometry>
        </mxCell>
        <mxCell id="s4NM-1Em4Yht4aQSiXmM-57" value="" style="endArrow=none;html=1;rounded=0;exitX=0.375;exitY=0.867;exitDx=0;exitDy=0;entryX=0;entryY=0.5;entryDx=0;entryDy=0;exitPerimeter=0;" edge="1" parent="1" source="s4NM-1Em4Yht4aQSiXmM-54" target="s4NM-1Em4Yht4aQSiXmM-59">
          <mxGeometry relative="1" as="geometry">
            <mxPoint x="284" y="409" as="sourcePoint" />
            <mxPoint x="280" y="550" as="targetPoint" />
          </mxGeometry>
        </mxCell>
        <mxCell id="s4NM-1Em4Yht4aQSiXmM-60" value="" style="endArrow=none;html=1;rounded=0;exitX=0.5;exitY=0;exitDx=0;exitDy=0;entryX=0.15;entryY=1;entryDx=0;entryDy=0;entryPerimeter=0;" edge="1" parent="1" source="s4NM-1Em4Yht4aQSiXmM-3" target="s4NM-1Em4Yht4aQSiXmM-59">
          <mxGeometry relative="1" as="geometry">
            <mxPoint x="310" y="530" as="sourcePoint" />
            <mxPoint x="300" y="410" as="targetPoint" />
            <Array as="points">
              <mxPoint x="310" y="530" />
            </Array>
          </mxGeometry>
        </mxCell>
        <mxCell id="s4NM-1Em4Yht4aQSiXmM-59" value="M" style="text;strokeColor=none;fillColor=none;spacingLeft=4;spacingRight=4;overflow=hidden;rotatable=0;points=[[0,0.5],[1,0.5]];portConstraint=eastwest;fontSize=12;whiteSpace=wrap;html=1;" vertex="1" parent="1">
          <mxGeometry x="300" y="480" width="20" height="20" as="geometry" />
        </mxCell>
        <mxCell id="s4NM-1Em4Yht4aQSiXmM-61" value="" style="endArrow=none;html=1;rounded=0;exitX=0.64;exitY=-0.025;exitDx=0;exitDy=0;exitPerimeter=0;entryX=0.95;entryY=0.9;entryDx=0;entryDy=0;entryPerimeter=0;" edge="1" parent="1" source="s4NM-1Em4Yht4aQSiXmM-3" target="s4NM-1Em4Yht4aQSiXmM-59">
          <mxGeometry relative="1" as="geometry">
            <mxPoint x="320" y="540" as="sourcePoint" />
            <mxPoint x="313" y="520" as="targetPoint" />
          </mxGeometry>
        </mxCell>
        <mxCell id="s4NM-1Em4Yht4aQSiXmM-63" value="" style="endArrow=none;html=1;rounded=0;exitX=0.44;exitY=0.975;exitDx=0;exitDy=0;entryX=0.5;entryY=0;entryDx=0;entryDy=0;exitPerimeter=0;" edge="1" parent="1" source="s4NM-1Em4Yht4aQSiXmM-1" target="s4NM-1Em4Yht4aQSiXmM-62">
          <mxGeometry relative="1" as="geometry">
            <mxPoint x="304" y="209" as="sourcePoint" />
            <mxPoint x="300" y="350" as="targetPoint" />
          </mxGeometry>
        </mxCell>
        <mxCell id="s4NM-1Em4Yht4aQSiXmM-62" value="1" style="text;strokeColor=none;fillColor=none;spacingLeft=4;spacingRight=4;overflow=hidden;rotatable=0;points=[[0,0.5],[1,0.5]];portConstraint=eastwest;fontSize=12;whiteSpace=wrap;html=1;" vertex="1" parent="1">
          <mxGeometry x="290" y="230" width="20" height="20" as="geometry" />
        </mxCell>
        <mxCell id="s4NM-1Em4Yht4aQSiXmM-65" value="has" style="shape=rhombus;double=1;perimeter=rhombusPerimeter;whiteSpace=wrap;html=1;align=center;" vertex="1" parent="1">
          <mxGeometry x="600" y="520" width="120" height="60" as="geometry" />
        </mxCell>
        <mxCell id="s4NM-1Em4Yht4aQSiXmM-66" value="" style="endArrow=none;html=1;rounded=0;exitX=1;exitY=0.5;exitDx=0;exitDy=0;" edge="1" parent="1" source="s4NM-1Em4Yht4aQSiXmM-69" target="s4NM-1Em4Yht4aQSiXmM-65">
          <mxGeometry relative="1" as="geometry">
            <mxPoint x="570" y="490" as="sourcePoint" />
            <mxPoint x="730" y="490" as="targetPoint" />
          </mxGeometry>
        </mxCell>
        <mxCell id="s4NM-1Em4Yht4aQSiXmM-67" value="" style="endArrow=none;html=1;rounded=0;exitX=0;exitY=0.5;exitDx=0;exitDy=0;entryX=1;entryY=0.5;entryDx=0;entryDy=0;" edge="1" parent="1" source="s4NM-1Em4Yht4aQSiXmM-71" target="s4NM-1Em4Yht4aQSiXmM-65">
          <mxGeometry relative="1" as="geometry">
            <mxPoint x="370" y="560" as="sourcePoint" />
            <mxPoint x="610" y="560" as="targetPoint" />
          </mxGeometry>
        </mxCell>
        <mxCell id="s4NM-1Em4Yht4aQSiXmM-70" value="" style="endArrow=none;html=1;rounded=0;exitX=1;exitY=0.5;exitDx=0;exitDy=0;" edge="1" parent="1" source="s4NM-1Em4Yht4aQSiXmM-3" target="s4NM-1Em4Yht4aQSiXmM-69">
          <mxGeometry relative="1" as="geometry">
            <mxPoint x="360" y="550" as="sourcePoint" />
            <mxPoint x="600" y="550" as="targetPoint" />
          </mxGeometry>
        </mxCell>
        <mxCell id="s4NM-1Em4Yht4aQSiXmM-69" value="M" style="text;strokeColor=none;fillColor=none;spacingLeft=4;spacingRight=4;overflow=hidden;rotatable=0;points=[[0,0.5],[1,0.5]];portConstraint=eastwest;fontSize=12;whiteSpace=wrap;html=1;" vertex="1" parent="1">
          <mxGeometry x="390" y="540" width="20" height="20" as="geometry" />
        </mxCell>
        <mxCell id="s4NM-1Em4Yht4aQSiXmM-73" value="" style="endArrow=none;html=1;rounded=0;exitX=0;exitY=0.5;exitDx=0;exitDy=0;entryX=1;entryY=0.5;entryDx=0;entryDy=0;" edge="1" parent="1" source="s4NM-1Em4Yht4aQSiXmM-4" target="s4NM-1Em4Yht4aQSiXmM-71">
          <mxGeometry relative="1" as="geometry">
            <mxPoint x="910" y="540" as="sourcePoint" />
            <mxPoint x="720" y="550" as="targetPoint" />
          </mxGeometry>
        </mxCell>
        <mxCell id="s4NM-1Em4Yht4aQSiXmM-71" value="M" style="text;strokeColor=none;fillColor=none;spacingLeft=4;spacingRight=4;overflow=hidden;rotatable=0;points=[[0,0.5],[1,0.5]];portConstraint=eastwest;fontSize=12;whiteSpace=wrap;html=1;" vertex="1" parent="1">
          <mxGeometry x="870" y="530" width="20" height="20" as="geometry" />
        </mxCell>
        <mxCell id="s4NM-1Em4Yht4aQSiXmM-74" value="location" style="ellipse;whiteSpace=wrap;html=1;align=center;" vertex="1" parent="1">
          <mxGeometry x="600" y="620" width="100" height="40" as="geometry" />
        </mxCell>
        <mxCell id="s4NM-1Em4Yht4aQSiXmM-75" value="" style="endArrow=none;html=1;rounded=0;exitX=0.5;exitY=0;exitDx=0;exitDy=0;entryX=0.5;entryY=1;entryDx=0;entryDy=0;" edge="1" parent="1" source="s4NM-1Em4Yht4aQSiXmM-74" target="s4NM-1Em4Yht4aQSiXmM-65">
          <mxGeometry relative="1" as="geometry">
            <mxPoint x="980" y="650" as="sourcePoint" />
            <mxPoint x="970" y="570" as="targetPoint" />
          </mxGeometry>
        </mxCell>
      </root>
    </mxGraphModel>
  </diagram>
</mxfile>
